<svg width="400" height="100" viewBox="0 0 400 100" fill="none" xmlns="http://www.w3.org/2000/svg">
  <rect width="400" height="100" fill="#0D1117"/>
  <text x="10" y="20" font-family="monospace" font-size="12" fill="#58A6FF">GitHub Activity</text>

  <!-- Activity grid -->
  <g transform="translate(10, 30)">
    <!-- Generate 52 weeks of activity -->
    <g>
      <!-- Week 1-13 (Q1) -->
      <rect x="0" y="0" width="8" height="8" fill="#0E4429" rx="1"/>
      <rect x="0" y="10" width="8" height="8" fill="#006D32" rx="1"/>
      <rect x="0" y="20" width="8" height="8" fill="#26A641" rx="1"/>
      <rect x="0" y="30" width="8" height="8" fill="#39D353" rx="1"/>

      <rect x="10" y="0" width="8" height="8" fill="#0E4429" rx="1"/>
      <rect x="10" y="10" width="8" height="8" fill="#006D32" rx="1"/>
      <rect x="10" y="20" width="8" height="8" fill="#26A641" rx="1"/>

      <rect x="20" y="0" width="8" height="8" fill="#0E4429" rx="1"/>
      <rect x="20" y="10" width="8" height="8" fill="#006D32" rx="1"/>
      <rect x="20" y="20" width="8" height="8" fill="#26A641" rx="1"/>
      <rect x="20" y="30" width="8" height="8" fill="#39D353" rx="1"/>

      <rect x="30" y="0" width="8" height="8" fill="#0E4429" rx="1"/>
      <rect x="30" y="10" width="8" height="8" fill="#006D32" rx="1"/>
      <rect x="30" y="20" width="8" height="8" fill="#26A641" rx="1"/>

      <rect x="40" y="0" width="8" height="8" fill="#0E4429" rx="1"/>
      <rect x="40" y="10" width="8" height="8" fill="#006D32" rx="1"/>
      <rect x="40" y="20" width="8" height="8" fill="#26A641" rx="1"/>
      <rect x="40" y="30" width="8" height="8" fill="#39D353" rx="1"/>

      <rect x="50" y="0" width="8" height="8" fill="#0E4429" rx="1"/>
      <rect x="50" y="10" width="8" height="8" fill="#006D32" rx="1"/>
      <rect x="50" y="20" width="8" height="8" fill="#26A641" rx="1"/>

      <rect x="60" y="0" width="8" height="8" fill="#0E4429" rx="1"/>
      <rect x="60" y="10" width="8" height="8" fill="#006D32" rx="1"/>
      <rect x="60" y="20" width="8" height="8" fill="#26A641" rx="1"/>
      <rect x="60" y="30" width="8" height="8" fill="#39D353" rx="1"/>

      <rect x="70" y="0" width="8" height="8" fill="#0E4429" rx="1"/>
      <rect x="70" y="10" width="8" height="8" fill="#006D32" rx="1"/>
      <rect x="70" y="20" width="8" height="8" fill="#26A641" rx="1"/>

      <rect x="80" y="0" width="8" height="8" fill="#0E4429" rx="1"/>
      <rect x="80" y="10" width="8" height="8" fill="#006D32" rx="1"/>
      <rect x="80" y="20" width="8" height="8" fill="#26A641" rx="1"/>
      <rect x="80" y="30" width="8" height="8" fill="#39D353" rx="1"/>

      <rect x="90" y="0" width="8" height="8" fill="#0E4429" rx="1"/>
      <rect x="90" y="10" width="8" height="8" fill="#006D32" rx="1"/>
      <rect x="90" y="20" width="8" height="8" fill="#26A641" rx="1"/>

      <rect x="100" y="0" width="8" height="8" fill="#0E4429" rx="1"/>
      <rect x="100" y="10" width="8" height="8" fill="#006D32" rx="1"/>
      <rect x="100" y="20" width="8" height="8" fill="#26A641" rx="1"/>
      <rect x="100" y="30" width="8" height="8" fill="#39D353" rx="1"/>

      <rect x="110" y="0" width="8" height="8" fill="#0E4429" rx="1"/>
      <rect x="110" y="10" width="8" height="8" fill="#006D32" rx="1"/>
      <rect x="110" y="20" width="8" height="8" fill="#26A641" rx="1"/>

      <rect x="120" y="0" width="8" height="8" fill="#0E4429" rx="1"/>
      <rect x="120" y="10" width="8" height="8" fill="#006D32" rx="1"/>
      <rect x="120" y="20" width="8" height="8" fill="#26A641" rx="1"/>
      <rect x="120" y="30" width="8" height="8" fill="#39D353" rx="1"/>
    </g>
  </g>

  <!-- Legend -->
  <g transform="translate(10, 80)">
    <text x="0" y="0" font-family="monospace" font-size="10" fill="#8B949E">Less</text>
    <rect x="40" y="-5" width="8" height="8" fill="#0E4429" rx="1"/>
    <rect x="50" y="-5" width="8" height="8" fill="#006D32" rx="1"/>
    <rect x="60" y="-5" width="8" height="8" fill="#26A641" rx="1"/>
    <rect x="70" y="-5" width="8" height="8" fill="#39D353" rx="1"/>
    <text x="85" y="0" font-family="monospace" font-size="10" fill="#8B949E">More</text>
  </g>
</svg>
