<svg xmlns="http://www.w3.org/2000/svg" width="800" height="600" viewBox="0 0 800 600">
  <rect width="800" height="600" fill="#f3f4f6"/>
  <rect x="20" y="20" width="760" height="60" rx="8" fill="#e5e7eb"/>
  <rect x="40" y="35" width="120" height="30" rx="4" fill="#d1d5db"/>

  <rect x="20" y="100" width="180" height="460" rx="8" fill="white"/>
  <rect x="40" y="120" width="140" height="30" rx="4" fill="#e5e7eb"/>
  <rect x="40" y="170" width="140" height="20" rx="4" fill="#f3f4f6"/>
  <rect x="40" y="200" width="140" height="20" rx="4" fill="#f3f4f6"/>

  <rect x="220" y="100" width="280" height="220" rx="8" fill="white"/>
  <polyline points="250,270 290,220 330,240 370,180 410,200 450,160" fill="none" stroke="#6366f1" stroke-width="3"/>
  <rect x="240" y="140" width="240" height="20" rx="4" fill="#e5e7eb"/>

  <rect x="520" y="100" width="260" height="220" rx="8" fill="white"/>
  <rect x="540" y="130" width="100" height="140" rx="4" fill="#e5e7eb"/>
  <rect x="660" y="160" width="100" height="110" rx="4" fill="#6366f1" opacity="0.5"/>

  <rect x="220" y="340" width="560" height="220" rx="8" fill="white"/>
  <rect x="240" y="360" width="520" height="30" rx="4" fill="#e5e7eb"/>
  <rect x="240" y="410" width="520" height="20" rx="4" fill="#f3f4f6"/>
  <rect x="240" y="440" width="480" height="20" rx="4" fill="#f3f4f6"/>
  <rect x="240" y="470" width="450" height="20" rx="4" fill="#f3f4f6"/>
  <rect x="240" y="500" width="520" height="20" rx="4" fill="#f3f4f6"/>

  <text x="400" y="310" font-family="system-ui, -apple-system, sans-serif" font-size="16" fill="#9ca3af" text-anchor="middle">Analytics Dashboard Preview</text>
</svg>
