<svg xmlns="http://www.w3.org/2000/svg" width="800" height="600" viewBox="0 0 800 600">
  <rect width="800" height="600" fill="#f3f4f6"/>
  <rect x="20" y="20" width="760" height="60" rx="8" fill="#e5e7eb"/>
  <rect x="40" y="35" width="120" height="30" rx="4" fill="#d1d5db"/>
  <rect x="660" y="35" width="100" height="30" rx="4" fill="#6366f1"/>

  <rect x="20" y="100" width="360" height="460" rx="8" fill="white"/>
  <rect x="40" y="120" width="320" height="40" rx="4" fill="#e5e7eb"/>
  <rect x="40" y="180" width="320" height="20" rx="4" fill="#f3f4f6"/>
  <rect x="40" y="210" width="280" height="20" rx="4" fill="#f3f4f6"/>
  <rect x="40" y="240" width="240" height="20" rx="4" fill="#f3f4f6"/>

  <rect x="420" y="100" width="360" height="220" rx="8" fill="white"/>
  <circle cx="600" cy="180" r="40" fill="#e5e7eb"/>
  <rect x="460" y="230" width="280" height="20" rx="4" fill="#f3f4f6"/>
  <rect x="460" y="260" width="240" height="20" rx="4" fill="#f3f4f6"/>

  <rect x="420" y="340" width="360" height="220" rx="8" fill="white"/>
  <rect x="440" y="360" width="320" height="30" rx="4" fill="#e5e7eb"/>
  <rect x="440" y="410" width="150" height="80" rx="4" fill="#f3f4f6"/>
  <rect x="610" y="410" width="150" height="80" rx="4" fill="#f3f4f6"/>

  <text x="400" y="310" font-family="system-ui, -apple-system, sans-serif" font-size="16" fill="#9ca3af" text-anchor="middle">Learning Platform Preview</text>
</svg>
